<?xml version="1.0" encoding="UTF-8" standalone="no"?>
<!DOCTYPE svg PUBLIC "-//W3C//DTD SVG 1.1//EN"
 "http://www.w3.org/Graphics/SVG/1.1/DTD/svg11.dtd">
<!-- Generated by graphviz version 2.38.0 (20140413.2041)
 -->
<!-- Title: perceptron Pages: 1 -->
<svg width="169pt" height="98pt"
 viewBox="0.00 0.00 169.00 98.00" xmlns="http://www.w3.org/2000/svg" xmlns:xlink="http://www.w3.org/1999/xlink">
<g id="graph0" class="graph" transform="scale(1 1) rotate(0) translate(4 94)">
<title>perceptron</title>
<polygon fill="white" stroke="none" points="-4,4 -4,-94 165,-94 165,4 -4,4"/>
<!-- x1 -->
<g id="node1" class="node"><title>x1</title>
<ellipse fill="none" stroke="black" cx="27" cy="-72" rx="27" ry="18"/>
<text text-anchor="start" x="20" y="-69.3" font-family="Times New Roman,serif" font-size="14.00">x</text>
<text text-anchor="start" x="27" y="-69.3" font-family="Times New Roman,serif" baseline-shift="sub" font-size="14.00">1</text>
</g>
<!-- y -->
<g id="node3" class="node"><title>y</title>
<ellipse fill="none" stroke="black" cx="134" cy="-45" rx="27" ry="18"/>
<text text-anchor="middle" x="134" y="-41.3" font-family="Times New Roman,serif" font-size="14.00">y</text>
</g>
<!-- x1&#45;&gt;y -->
<g id="edge1" class="edge"><title>x1&#45;&gt;y</title>
<path fill="none" stroke="black" d="M52.353,-65.7378C66.037,-62.2191 83.3431,-57.7689 98.4122,-53.894"/>
<polygon fill="black" stroke="black" points="99.6021,-57.202 108.415,-51.3218 97.8587,-50.4225 99.6021,-57.202"/>
<text text-anchor="start" x="72" y="-64.8" font-family="Times New Roman,serif" font-size="14.00">w</text>
<text text-anchor="start" x="82" y="-64.8" font-family="Times New Roman,serif" baseline-shift="sub" font-size="14.00">1</text>
</g>
<!-- x2 -->
<g id="node2" class="node"><title>x2</title>
<ellipse fill="none" stroke="black" cx="27" cy="-18" rx="27" ry="18"/>
<text text-anchor="start" x="20" y="-15.3" font-family="Times New Roman,serif" font-size="14.00">x</text>
<text text-anchor="start" x="27" y="-15.3" font-family="Times New Roman,serif" baseline-shift="sub" font-size="14.00">2</text>
</g>
<!-- x2&#45;&gt;y -->
<g id="edge2" class="edge"><title>x2&#45;&gt;y</title>
<path fill="none" stroke="black" d="M52.353,-24.2622C66.037,-27.7809 83.3431,-32.2311 98.4122,-36.106"/>
<polygon fill="black" stroke="black" points="97.8587,-39.5775 108.415,-38.6782 99.6021,-32.798 97.8587,-39.5775"/>
<text text-anchor="start" x="72" y="-37.8" font-family="Times New Roman,serif" font-size="14.00">w</text>
<text text-anchor="start" x="82" y="-37.8" font-family="Times New Roman,serif" baseline-shift="sub" font-size="14.00">2</text>
</g>
</g>
</svg>
